<mxfile host="app.diagrams.net" modified="2023-07-04T15:48:00.688Z" agent="Mozilla/5.0 (Windows NT 10.0; Win64; x64) AppleWebKit/537.36 (KHTML, like Gecko) Chrome/114.0.0.0 Safari/537.36" etag="GwsfUGGcTRdVQKEMuI2s" version="21.5.2" type="device">
  <diagram name="Page-1" id="09DajQlsoDGaR5UKHQZs">
    <mxGraphModel dx="2096" dy="1615" grid="1" gridSize="10" guides="1" tooltips="1" connect="1" arrows="1" fold="1" page="1" pageScale="1" pageWidth="850" pageHeight="1100" math="0" shadow="0">
      <root>
        <mxCell id="0" />
        <mxCell id="1" parent="0" />
        <mxCell id="JQ7dYN5Y3wBBPKodbZUG-1" value="Ward" style="rounded=0;whiteSpace=wrap;html=1;" parent="1" vertex="1">
          <mxGeometry x="40" y="120" width="190" height="110" as="geometry" />
        </mxCell>
        <mxCell id="JQ7dYN5Y3wBBPKodbZUG-3" value="&lt;u&gt;WNO&lt;/u&gt;" style="ellipse;whiteSpace=wrap;html=1;" parent="1" vertex="1">
          <mxGeometry x="130" y="40" width="50" height="25" as="geometry" />
        </mxCell>
        <mxCell id="JQ7dYN5Y3wBBPKodbZUG-4" value="" style="endArrow=none;html=1;rounded=0;" parent="1" edge="1">
          <mxGeometry width="50" height="50" relative="1" as="geometry">
            <mxPoint x="160" y="122.5" as="sourcePoint" />
            <mxPoint x="210" y="72.5" as="targetPoint" />
          </mxGeometry>
        </mxCell>
        <mxCell id="JQ7dYN5Y3wBBPKodbZUG-5" value="Name" style="ellipse;whiteSpace=wrap;html=1;" parent="1" vertex="1">
          <mxGeometry x="190" y="32.5" width="70" height="40" as="geometry" />
        </mxCell>
        <mxCell id="JQ7dYN5Y3wBBPKodbZUG-10" value="" style="endArrow=none;html=1;rounded=0;entryX=0.294;entryY=0.975;entryDx=0;entryDy=0;entryPerimeter=0;" parent="1" target="JQ7dYN5Y3wBBPKodbZUG-65" edge="1">
          <mxGeometry width="50" height="50" relative="1" as="geometry">
            <mxPoint x="50" y="120" as="sourcePoint" />
            <mxPoint x="100" y="70" as="targetPoint" />
          </mxGeometry>
        </mxCell>
        <mxCell id="JQ7dYN5Y3wBBPKodbZUG-12" value="Doctor" style="rounded=0;whiteSpace=wrap;html=1;" parent="1" vertex="1">
          <mxGeometry x="560" y="120" width="190" height="110" as="geometry" />
        </mxCell>
        <mxCell id="JQ7dYN5Y3wBBPKodbZUG-13" value="" style="endArrow=none;html=1;rounded=0;" parent="1" edge="1">
          <mxGeometry width="50" height="50" relative="1" as="geometry">
            <mxPoint x="630" y="117.5" as="sourcePoint" />
            <mxPoint x="600" y="72.5" as="targetPoint" />
          </mxGeometry>
        </mxCell>
        <mxCell id="JQ7dYN5Y3wBBPKodbZUG-14" value="&lt;u&gt;dID&lt;/u&gt;" style="ellipse;whiteSpace=wrap;html=1;strokeColor=default;" parent="1" vertex="1">
          <mxGeometry x="580" y="47.5" width="50" height="25" as="geometry" />
        </mxCell>
        <mxCell id="JQ7dYN5Y3wBBPKodbZUG-15" value="Address" style="ellipse;whiteSpace=wrap;html=1;" parent="1" vertex="1">
          <mxGeometry x="650" y="25" width="70" height="45" as="geometry" />
        </mxCell>
        <mxCell id="JQ7dYN5Y3wBBPKodbZUG-16" value="" style="endArrow=none;html=1;rounded=0;" parent="1" edge="1">
          <mxGeometry width="50" height="50" relative="1" as="geometry">
            <mxPoint x="700" y="120" as="sourcePoint" />
            <mxPoint x="660" y="60" as="targetPoint" />
          </mxGeometry>
        </mxCell>
        <mxCell id="JQ7dYN5Y3wBBPKodbZUG-18" value="Specialization" style="ellipse;whiteSpace=wrap;html=1;" parent="1" vertex="1">
          <mxGeometry x="480" y="30" width="70" height="40" as="geometry" />
        </mxCell>
        <mxCell id="JQ7dYN5Y3wBBPKodbZUG-19" value="" style="endArrow=none;html=1;rounded=0;" parent="1" edge="1">
          <mxGeometry width="50" height="50" relative="1" as="geometry">
            <mxPoint x="610" y="120" as="sourcePoint" />
            <mxPoint x="550" y="60" as="targetPoint" />
          </mxGeometry>
        </mxCell>
        <mxCell id="JQ7dYN5Y3wBBPKodbZUG-20" value="" style="endArrow=none;html=1;rounded=0;" parent="1" target="JQ7dYN5Y3wBBPKodbZUG-21" edge="1">
          <mxGeometry width="50" height="50" relative="1" as="geometry">
            <mxPoint x="230" y="170" as="sourcePoint" />
            <mxPoint x="320" y="170" as="targetPoint" />
          </mxGeometry>
        </mxCell>
        <mxCell id="JQ7dYN5Y3wBBPKodbZUG-21" value="Assigned By" style="rhombus;whiteSpace=wrap;html=1;" parent="1" vertex="1">
          <mxGeometry x="360" y="130" width="80" height="80" as="geometry" />
        </mxCell>
        <mxCell id="JQ7dYN5Y3wBBPKodbZUG-22" value="" style="endArrow=none;html=1;rounded=0;entryX=0;entryY=0.5;entryDx=0;entryDy=0;" parent="1" target="JQ7dYN5Y3wBBPKodbZUG-12" edge="1">
          <mxGeometry width="50" height="50" relative="1" as="geometry">
            <mxPoint x="440" y="170" as="sourcePoint" />
            <mxPoint x="550" y="170" as="targetPoint" />
          </mxGeometry>
        </mxCell>
        <mxCell id="JQ7dYN5Y3wBBPKodbZUG-23" value="1" style="text;html=1;align=center;verticalAlign=middle;resizable=0;points=[];autosize=1;strokeColor=none;fillColor=none;" parent="1" vertex="1">
          <mxGeometry x="230" y="140" width="30" height="30" as="geometry" />
        </mxCell>
        <mxCell id="JQ7dYN5Y3wBBPKodbZUG-24" value="M" style="text;html=1;align=center;verticalAlign=middle;resizable=0;points=[];autosize=1;strokeColor=none;fillColor=none;" parent="1" vertex="1">
          <mxGeometry x="530" y="140" width="30" height="30" as="geometry" />
        </mxCell>
        <mxCell id="JQ7dYN5Y3wBBPKodbZUG-25" value="Patient" style="rounded=0;whiteSpace=wrap;html=1;" parent="1" vertex="1">
          <mxGeometry x="40" y="440" width="200" height="120" as="geometry" />
        </mxCell>
        <mxCell id="JQ7dYN5Y3wBBPKodbZUG-30" value="" style="endArrow=none;html=1;rounded=0;" parent="1" edge="1">
          <mxGeometry width="50" height="50" relative="1" as="geometry">
            <mxPoint x="40" y="610" as="sourcePoint" />
            <mxPoint x="90" y="560" as="targetPoint" />
          </mxGeometry>
        </mxCell>
        <mxCell id="JQ7dYN5Y3wBBPKodbZUG-32" value="" style="endArrow=none;html=1;rounded=0;" parent="1" edge="1">
          <mxGeometry width="50" height="50" relative="1" as="geometry">
            <mxPoint x="100" y="610" as="sourcePoint" />
            <mxPoint x="150" y="560" as="targetPoint" />
          </mxGeometry>
        </mxCell>
        <mxCell id="JQ7dYN5Y3wBBPKodbZUG-40" value="&lt;u&gt;Admission Number&lt;/u&gt;" style="ellipse;whiteSpace=wrap;html=1;" parent="1" vertex="1">
          <mxGeometry y="610" width="70" height="40" as="geometry" />
        </mxCell>
        <mxCell id="JQ7dYN5Y3wBBPKodbZUG-44" value="Hosts" style="rhombus;whiteSpace=wrap;html=1;" parent="1" vertex="1">
          <mxGeometry x="95" y="300" width="80" height="80" as="geometry" />
        </mxCell>
        <mxCell id="JQ7dYN5Y3wBBPKodbZUG-46" value="" style="endArrow=none;html=1;rounded=0;entryX=0.5;entryY=1;entryDx=0;entryDy=0;" parent="1" target="JQ7dYN5Y3wBBPKodbZUG-1" edge="1">
          <mxGeometry width="50" height="50" relative="1" as="geometry">
            <mxPoint x="134.44" y="300" as="sourcePoint" />
            <mxPoint x="134.44" y="240" as="targetPoint" />
          </mxGeometry>
        </mxCell>
        <mxCell id="JQ7dYN5Y3wBBPKodbZUG-47" value="" style="endArrow=none;html=1;rounded=0;entryX=0.5;entryY=1;entryDx=0;entryDy=0;exitX=0.466;exitY=0.004;exitDx=0;exitDy=0;exitPerimeter=0;" parent="1" source="JQ7dYN5Y3wBBPKodbZUG-25" edge="1">
          <mxGeometry width="50" height="50" relative="1" as="geometry">
            <mxPoint x="135" y="450" as="sourcePoint" />
            <mxPoint x="135" y="380" as="targetPoint" />
          </mxGeometry>
        </mxCell>
        <mxCell id="JQ7dYN5Y3wBBPKodbZUG-48" value="1" style="text;html=1;align=center;verticalAlign=middle;resizable=0;points=[];autosize=1;strokeColor=none;fillColor=none;" parent="1" vertex="1">
          <mxGeometry x="140" y="238" width="30" height="30" as="geometry" />
        </mxCell>
        <mxCell id="JQ7dYN5Y3wBBPKodbZUG-49" value="M" style="text;html=1;align=center;verticalAlign=middle;resizable=0;points=[];autosize=1;strokeColor=none;fillColor=none;" parent="1" vertex="1">
          <mxGeometry x="125" y="408" width="30" height="30" as="geometry" />
        </mxCell>
        <mxCell id="JQ7dYN5Y3wBBPKodbZUG-50" value="" style="rounded=0;whiteSpace=wrap;html=1;" parent="1" vertex="1">
          <mxGeometry x="560" y="442" width="200" height="120" as="geometry" />
        </mxCell>
        <mxCell id="JQ7dYN5Y3wBBPKodbZUG-52" value="&lt;u&gt;tno&lt;/u&gt;" style="ellipse;whiteSpace=wrap;html=1;" parent="1" vertex="1">
          <mxGeometry x="780" y="627" width="40" height="25" as="geometry" />
        </mxCell>
        <mxCell id="JQ7dYN5Y3wBBPKodbZUG-53" value="" style="endArrow=none;html=1;rounded=0;exitX=0.308;exitY=-0.035;exitDx=0;exitDy=0;exitPerimeter=0;" parent="1" edge="1" source="JQ7dYN5Y3wBBPKodbZUG-58">
          <mxGeometry width="50" height="50" relative="1" as="geometry">
            <mxPoint x="560" y="612" as="sourcePoint" />
            <mxPoint x="610" y="562" as="targetPoint" />
          </mxGeometry>
        </mxCell>
        <mxCell id="JQ7dYN5Y3wBBPKodbZUG-57" value="" style="endArrow=none;html=1;rounded=0;" parent="1" edge="1">
          <mxGeometry width="50" height="50" relative="1" as="geometry">
            <mxPoint x="795" y="622" as="sourcePoint" />
            <mxPoint x="735" y="562" as="targetPoint" />
          </mxGeometry>
        </mxCell>
        <mxCell id="JQ7dYN5Y3wBBPKodbZUG-58" value="Description" style="ellipse;whiteSpace=wrap;html=1;" parent="1" vertex="1">
          <mxGeometry x="530" y="617.5" width="80" height="42.5" as="geometry" />
        </mxCell>
        <mxCell id="JQ7dYN5Y3wBBPKodbZUG-65" value="Number Of Patients" style="ellipse;whiteSpace=wrap;html=1;" parent="1" vertex="1">
          <mxGeometry x="40" y="30" width="90" height="60" as="geometry" />
        </mxCell>
        <mxCell id="JQ7dYN5Y3wBBPKodbZUG-67" value="" style="endArrow=none;html=1;rounded=0;exitX=0.446;exitY=-0.012;exitDx=0;exitDy=0;exitPerimeter=0;entryX=0.5;entryY=1;entryDx=0;entryDy=0;" parent="1" edge="1" target="JQ7dYN5Y3wBBPKodbZUG-3" source="JQ7dYN5Y3wBBPKodbZUG-1">
          <mxGeometry width="50" height="50" relative="1" as="geometry">
            <mxPoint x="163.85" y="130" as="sourcePoint" />
            <mxPoint x="160.00321965000862" y="79.99185545011346" as="targetPoint" />
          </mxGeometry>
        </mxCell>
        <mxCell id="IY7W01UMlMfJ5vMGg9ol-5" value="" style="endArrow=none;html=1;rounded=0;" edge="1" parent="1">
          <mxGeometry width="50" height="50" relative="1" as="geometry">
            <mxPoint x="255" y="41.25" as="sourcePoint" />
            <mxPoint x="320" y="20" as="targetPoint" />
          </mxGeometry>
        </mxCell>
        <mxCell id="IY7W01UMlMfJ5vMGg9ol-6" value="" style="endArrow=none;html=1;rounded=0;" edge="1" parent="1">
          <mxGeometry width="50" height="50" relative="1" as="geometry">
            <mxPoint x="260" y="45" as="sourcePoint" />
            <mxPoint x="330" y="70" as="targetPoint" />
          </mxGeometry>
        </mxCell>
        <mxCell id="IY7W01UMlMfJ5vMGg9ol-7" value="First Name" style="ellipse;whiteSpace=wrap;html=1;" vertex="1" parent="1">
          <mxGeometry x="320" y="-7.5" width="70" height="40" as="geometry" />
        </mxCell>
        <mxCell id="IY7W01UMlMfJ5vMGg9ol-8" value="Middle Name" style="ellipse;whiteSpace=wrap;html=1;" vertex="1" parent="1">
          <mxGeometry x="330" y="40" width="70" height="40" as="geometry" />
        </mxCell>
        <mxCell id="IY7W01UMlMfJ5vMGg9ol-11" value="Last Name" style="ellipse;whiteSpace=wrap;html=1;" vertex="1" parent="1">
          <mxGeometry x="300" y="86.25" width="70" height="40" as="geometry" />
        </mxCell>
        <mxCell id="IY7W01UMlMfJ5vMGg9ol-12" value="" style="endArrow=none;html=1;rounded=0;" edge="1" parent="1">
          <mxGeometry width="50" height="50" relative="1" as="geometry">
            <mxPoint x="250" y="65" as="sourcePoint" />
            <mxPoint x="310" y="90" as="targetPoint" />
          </mxGeometry>
        </mxCell>
        <mxCell id="IY7W01UMlMfJ5vMGg9ol-13" value="" style="endArrow=none;html=1;rounded=0;entryX=0.133;entryY=0.592;entryDx=0;entryDy=0;entryPerimeter=0;" edge="1" parent="1" target="IY7W01UMlMfJ5vMGg9ol-14">
          <mxGeometry width="50" height="50" relative="1" as="geometry">
            <mxPoint x="240" y="438" as="sourcePoint" />
            <mxPoint x="290" y="388" as="targetPoint" />
          </mxGeometry>
        </mxCell>
        <mxCell id="IY7W01UMlMfJ5vMGg9ol-14" value="Assign" style="rhombus;whiteSpace=wrap;html=1;" vertex="1" parent="1">
          <mxGeometry x="325" y="290" width="80" height="80" as="geometry" />
        </mxCell>
        <mxCell id="IY7W01UMlMfJ5vMGg9ol-16" value="" style="endArrow=none;html=1;rounded=0;entryX=0.384;entryY=1.012;entryDx=0;entryDy=0;entryPerimeter=0;" edge="1" parent="1" target="JQ7dYN5Y3wBBPKodbZUG-12">
          <mxGeometry width="50" height="50" relative="1" as="geometry">
            <mxPoint x="405" y="330" as="sourcePoint" />
            <mxPoint x="455" y="280" as="targetPoint" />
          </mxGeometry>
        </mxCell>
        <mxCell id="IY7W01UMlMfJ5vMGg9ol-17" value="M" style="text;html=1;align=center;verticalAlign=middle;resizable=0;points=[];autosize=1;strokeColor=none;fillColor=none;" vertex="1" parent="1">
          <mxGeometry x="230" y="400" width="30" height="30" as="geometry" />
        </mxCell>
        <mxCell id="IY7W01UMlMfJ5vMGg9ol-18" value="1" style="text;html=1;align=center;verticalAlign=middle;resizable=0;points=[];autosize=1;strokeColor=none;fillColor=none;" vertex="1" parent="1">
          <mxGeometry x="560" y="230" width="30" height="30" as="geometry" />
        </mxCell>
        <mxCell id="IY7W01UMlMfJ5vMGg9ol-20" value="Name" style="ellipse;whiteSpace=wrap;html=1;" vertex="1" parent="1">
          <mxGeometry x="630" y="286.25" width="70" height="40" as="geometry" />
        </mxCell>
        <mxCell id="IY7W01UMlMfJ5vMGg9ol-21" value="" style="endArrow=none;html=1;rounded=0;" edge="1" parent="1">
          <mxGeometry width="50" height="50" relative="1" as="geometry">
            <mxPoint x="695" y="295" as="sourcePoint" />
            <mxPoint x="760" y="273.75" as="targetPoint" />
          </mxGeometry>
        </mxCell>
        <mxCell id="IY7W01UMlMfJ5vMGg9ol-22" value="" style="endArrow=none;html=1;rounded=0;" edge="1" parent="1">
          <mxGeometry width="50" height="50" relative="1" as="geometry">
            <mxPoint x="700" y="298.75" as="sourcePoint" />
            <mxPoint x="770" y="323.75" as="targetPoint" />
          </mxGeometry>
        </mxCell>
        <mxCell id="IY7W01UMlMfJ5vMGg9ol-23" value="First Name" style="ellipse;whiteSpace=wrap;html=1;" vertex="1" parent="1">
          <mxGeometry x="760" y="246.25" width="70" height="40" as="geometry" />
        </mxCell>
        <mxCell id="IY7W01UMlMfJ5vMGg9ol-24" value="Middle Name" style="ellipse;whiteSpace=wrap;html=1;" vertex="1" parent="1">
          <mxGeometry x="770" y="293.75" width="70" height="40" as="geometry" />
        </mxCell>
        <mxCell id="IY7W01UMlMfJ5vMGg9ol-25" value="Last Name" style="ellipse;whiteSpace=wrap;html=1;" vertex="1" parent="1">
          <mxGeometry x="740" y="340" width="70" height="40" as="geometry" />
        </mxCell>
        <mxCell id="IY7W01UMlMfJ5vMGg9ol-26" value="" style="endArrow=none;html=1;rounded=0;" edge="1" parent="1">
          <mxGeometry width="50" height="50" relative="1" as="geometry">
            <mxPoint x="690" y="318.75" as="sourcePoint" />
            <mxPoint x="750" y="343.75" as="targetPoint" />
          </mxGeometry>
        </mxCell>
        <mxCell id="IY7W01UMlMfJ5vMGg9ol-27" value="" style="endArrow=none;html=1;rounded=0;exitX=1;exitY=0;exitDx=0;exitDy=0;" edge="1" parent="1">
          <mxGeometry width="50" height="50" relative="1" as="geometry">
            <mxPoint x="649.9987373415292" y="286.2478643762687" as="sourcePoint" />
            <mxPoint x="700.25" y="230.39" as="targetPoint" />
          </mxGeometry>
        </mxCell>
        <mxCell id="IY7W01UMlMfJ5vMGg9ol-28" value="" style="endArrow=none;html=1;rounded=0;" edge="1" parent="1">
          <mxGeometry width="50" height="50" relative="1" as="geometry">
            <mxPoint x="715" y="48.75" as="sourcePoint" />
            <mxPoint x="780" y="27.5" as="targetPoint" />
          </mxGeometry>
        </mxCell>
        <mxCell id="IY7W01UMlMfJ5vMGg9ol-29" value="" style="endArrow=none;html=1;rounded=0;" edge="1" parent="1">
          <mxGeometry width="50" height="50" relative="1" as="geometry">
            <mxPoint x="720" y="52.5" as="sourcePoint" />
            <mxPoint x="790" y="77.5" as="targetPoint" />
          </mxGeometry>
        </mxCell>
        <mxCell id="IY7W01UMlMfJ5vMGg9ol-30" value="House No" style="ellipse;whiteSpace=wrap;html=1;" vertex="1" parent="1">
          <mxGeometry x="780" width="70" height="40" as="geometry" />
        </mxCell>
        <mxCell id="IY7W01UMlMfJ5vMGg9ol-31" value="Street" style="ellipse;whiteSpace=wrap;html=1;" vertex="1" parent="1">
          <mxGeometry x="790" y="47.5" width="70" height="42.5" as="geometry" />
        </mxCell>
        <mxCell id="IY7W01UMlMfJ5vMGg9ol-32" value="City" style="ellipse;whiteSpace=wrap;html=1;" vertex="1" parent="1">
          <mxGeometry x="760" y="86.25" width="70" height="40" as="geometry" />
        </mxCell>
        <mxCell id="IY7W01UMlMfJ5vMGg9ol-33" value="" style="endArrow=none;html=1;rounded=0;" edge="1" parent="1">
          <mxGeometry width="50" height="50" relative="1" as="geometry">
            <mxPoint x="700" y="68.75" as="sourcePoint" />
            <mxPoint x="760" y="93.75" as="targetPoint" />
          </mxGeometry>
        </mxCell>
        <mxCell id="IY7W01UMlMfJ5vMGg9ol-34" value="" style="endArrow=none;html=1;rounded=0;" edge="1" parent="1">
          <mxGeometry width="50" height="50" relative="1" as="geometry">
            <mxPoint x="710" y="30" as="sourcePoint" />
            <mxPoint x="760" y="-20" as="targetPoint" />
          </mxGeometry>
        </mxCell>
        <mxCell id="IY7W01UMlMfJ5vMGg9ol-35" value="Country" style="ellipse;whiteSpace=wrap;html=1;" vertex="1" parent="1">
          <mxGeometry x="760" y="-47.5" width="70" height="40" as="geometry" />
        </mxCell>
        <mxCell id="IY7W01UMlMfJ5vMGg9ol-37" value="" style="endArrow=none;html=1;rounded=0;" edge="1" parent="1">
          <mxGeometry width="50" height="50" relative="1" as="geometry">
            <mxPoint x="750" y="190" as="sourcePoint" />
            <mxPoint x="820" y="150" as="targetPoint" />
          </mxGeometry>
        </mxCell>
        <mxCell id="IY7W01UMlMfJ5vMGg9ol-38" value="Telephone Number" style="ellipse;whiteSpace=wrap;html=1;" vertex="1" parent="1">
          <mxGeometry x="820" y="122.5" width="70" height="40" as="geometry" />
        </mxCell>
        <mxCell id="IY7W01UMlMfJ5vMGg9ol-39" value="" style="endArrow=none;html=1;rounded=0;" edge="1" parent="1">
          <mxGeometry width="50" height="50" relative="1" as="geometry">
            <mxPoint x="885" y="131.25" as="sourcePoint" />
            <mxPoint x="950" y="110" as="targetPoint" />
          </mxGeometry>
        </mxCell>
        <mxCell id="IY7W01UMlMfJ5vMGg9ol-41" value="Country Code" style="ellipse;whiteSpace=wrap;html=1;" vertex="1" parent="1">
          <mxGeometry x="950" y="90" width="70" height="40" as="geometry" />
        </mxCell>
        <mxCell id="IY7W01UMlMfJ5vMGg9ol-42" value="Number" style="ellipse;whiteSpace=wrap;html=1;" vertex="1" parent="1">
          <mxGeometry x="930" y="176.25" width="70" height="40" as="geometry" />
        </mxCell>
        <mxCell id="IY7W01UMlMfJ5vMGg9ol-43" value="" style="endArrow=none;html=1;rounded=0;" edge="1" parent="1">
          <mxGeometry width="50" height="50" relative="1" as="geometry">
            <mxPoint x="880" y="155" as="sourcePoint" />
            <mxPoint x="940" y="180" as="targetPoint" />
          </mxGeometry>
        </mxCell>
        <mxCell id="IY7W01UMlMfJ5vMGg9ol-44" value="Name" style="ellipse;whiteSpace=wrap;html=1;" vertex="1" parent="1">
          <mxGeometry x="80" y="610.63" width="70" height="40" as="geometry" />
        </mxCell>
        <mxCell id="IY7W01UMlMfJ5vMGg9ol-45" value="" style="endArrow=none;html=1;rounded=0;" edge="1" parent="1">
          <mxGeometry width="50" height="50" relative="1" as="geometry">
            <mxPoint x="145" y="619.38" as="sourcePoint" />
            <mxPoint x="210" y="598.13" as="targetPoint" />
          </mxGeometry>
        </mxCell>
        <mxCell id="IY7W01UMlMfJ5vMGg9ol-46" value="" style="endArrow=none;html=1;rounded=0;" edge="1" parent="1">
          <mxGeometry width="50" height="50" relative="1" as="geometry">
            <mxPoint x="150" y="623.13" as="sourcePoint" />
            <mxPoint x="220" y="648.13" as="targetPoint" />
          </mxGeometry>
        </mxCell>
        <mxCell id="IY7W01UMlMfJ5vMGg9ol-47" value="First Name" style="ellipse;whiteSpace=wrap;html=1;" vertex="1" parent="1">
          <mxGeometry x="210" y="570.63" width="70" height="40" as="geometry" />
        </mxCell>
        <mxCell id="IY7W01UMlMfJ5vMGg9ol-48" value="Middle Name" style="ellipse;whiteSpace=wrap;html=1;" vertex="1" parent="1">
          <mxGeometry x="220" y="618.13" width="70" height="40" as="geometry" />
        </mxCell>
        <mxCell id="IY7W01UMlMfJ5vMGg9ol-49" value="Last Name" style="ellipse;whiteSpace=wrap;html=1;" vertex="1" parent="1">
          <mxGeometry x="190" y="664.38" width="70" height="40" as="geometry" />
        </mxCell>
        <mxCell id="IY7W01UMlMfJ5vMGg9ol-50" value="" style="endArrow=none;html=1;rounded=0;" edge="1" parent="1">
          <mxGeometry width="50" height="50" relative="1" as="geometry">
            <mxPoint x="140" y="643.13" as="sourcePoint" />
            <mxPoint x="200" y="668.13" as="targetPoint" />
          </mxGeometry>
        </mxCell>
        <mxCell id="IY7W01UMlMfJ5vMGg9ol-52" value="" style="endArrow=none;html=1;rounded=0;" edge="1" parent="1">
          <mxGeometry width="50" height="50" relative="1" as="geometry">
            <mxPoint x="-10" y="510" as="sourcePoint" />
            <mxPoint x="40" y="460" as="targetPoint" />
          </mxGeometry>
        </mxCell>
        <mxCell id="IY7W01UMlMfJ5vMGg9ol-53" value="Address" style="ellipse;whiteSpace=wrap;html=1;" vertex="1" parent="1">
          <mxGeometry x="-70" y="500" width="70" height="45" as="geometry" />
        </mxCell>
        <mxCell id="IY7W01UMlMfJ5vMGg9ol-54" value="House No" style="ellipse;whiteSpace=wrap;html=1;" vertex="1" parent="1">
          <mxGeometry x="-170" y="505" width="70" height="40" as="geometry" />
        </mxCell>
        <mxCell id="IY7W01UMlMfJ5vMGg9ol-55" value="Street" style="ellipse;whiteSpace=wrap;html=1;" vertex="1" parent="1">
          <mxGeometry x="-160" y="560" width="70" height="42.5" as="geometry" />
        </mxCell>
        <mxCell id="IY7W01UMlMfJ5vMGg9ol-56" value="City" style="ellipse;whiteSpace=wrap;html=1;" vertex="1" parent="1">
          <mxGeometry x="-130" y="606.25" width="70" height="40" as="geometry" />
        </mxCell>
        <mxCell id="IY7W01UMlMfJ5vMGg9ol-57" value="Country" style="ellipse;whiteSpace=wrap;html=1;" vertex="1" parent="1">
          <mxGeometry x="-110" y="652" width="70" height="40" as="geometry" />
        </mxCell>
        <mxCell id="IY7W01UMlMfJ5vMGg9ol-58" value="" style="endArrow=none;html=1;rounded=0;exitX=0.752;exitY=-0.063;exitDx=0;exitDy=0;exitPerimeter=0;" edge="1" parent="1" source="IY7W01UMlMfJ5vMGg9ol-55" target="IY7W01UMlMfJ5vMGg9ol-53">
          <mxGeometry width="50" height="50" relative="1" as="geometry">
            <mxPoint x="-80" y="585" as="sourcePoint" />
            <mxPoint x="-10" y="545" as="targetPoint" />
          </mxGeometry>
        </mxCell>
        <mxCell id="IY7W01UMlMfJ5vMGg9ol-59" value="" style="endArrow=none;html=1;rounded=0;entryX=0.276;entryY=0.059;entryDx=0;entryDy=0;entryPerimeter=0;" edge="1" parent="1" target="IY7W01UMlMfJ5vMGg9ol-53">
          <mxGeometry width="50" height="50" relative="1" as="geometry">
            <mxPoint x="-100" y="522" as="sourcePoint" />
            <mxPoint x="-70" y="480" as="targetPoint" />
          </mxGeometry>
        </mxCell>
        <mxCell id="IY7W01UMlMfJ5vMGg9ol-60" value="" style="endArrow=none;html=1;rounded=0;entryX=0.5;entryY=1;entryDx=0;entryDy=0;" edge="1" parent="1" target="IY7W01UMlMfJ5vMGg9ol-53">
          <mxGeometry width="50" height="50" relative="1" as="geometry">
            <mxPoint x="-70" y="618.13" as="sourcePoint" />
            <mxPoint x="-40" y="576.13" as="targetPoint" />
          </mxGeometry>
        </mxCell>
        <mxCell id="IY7W01UMlMfJ5vMGg9ol-61" value="" style="endArrow=none;html=1;rounded=0;entryX=1;entryY=1;entryDx=0;entryDy=0;" edge="1" parent="1" target="IY7W01UMlMfJ5vMGg9ol-53">
          <mxGeometry width="50" height="50" relative="1" as="geometry">
            <mxPoint x="-60" y="655.5" as="sourcePoint" />
            <mxPoint x="-30" y="613.5" as="targetPoint" />
          </mxGeometry>
        </mxCell>
        <mxCell id="IY7W01UMlMfJ5vMGg9ol-69" value="" style="endArrow=none;html=1;rounded=0;" edge="1" parent="1">
          <mxGeometry width="50" height="50" relative="1" as="geometry">
            <mxPoint x="240" y="443.75" as="sourcePoint" />
            <mxPoint x="310" y="403.75" as="targetPoint" />
          </mxGeometry>
        </mxCell>
        <mxCell id="IY7W01UMlMfJ5vMGg9ol-70" value="Telephone Number" style="ellipse;whiteSpace=wrap;html=1;" vertex="1" parent="1">
          <mxGeometry x="310" y="376.25" width="70" height="40" as="geometry" />
        </mxCell>
        <mxCell id="IY7W01UMlMfJ5vMGg9ol-71" value="" style="endArrow=none;html=1;rounded=0;" edge="1" parent="1">
          <mxGeometry width="50" height="50" relative="1" as="geometry">
            <mxPoint x="375" y="385" as="sourcePoint" />
            <mxPoint x="440" y="363.75" as="targetPoint" />
          </mxGeometry>
        </mxCell>
        <mxCell id="IY7W01UMlMfJ5vMGg9ol-72" value="Country Code" style="ellipse;whiteSpace=wrap;html=1;" vertex="1" parent="1">
          <mxGeometry x="440" y="343.75" width="70" height="40" as="geometry" />
        </mxCell>
        <mxCell id="IY7W01UMlMfJ5vMGg9ol-73" value="Number" style="ellipse;whiteSpace=wrap;html=1;" vertex="1" parent="1">
          <mxGeometry x="420" y="430" width="70" height="40" as="geometry" />
        </mxCell>
        <mxCell id="IY7W01UMlMfJ5vMGg9ol-74" value="" style="endArrow=none;html=1;rounded=0;" edge="1" parent="1">
          <mxGeometry width="50" height="50" relative="1" as="geometry">
            <mxPoint x="370" y="408.75" as="sourcePoint" />
            <mxPoint x="430" y="433.75" as="targetPoint" />
          </mxGeometry>
        </mxCell>
        <mxCell id="IY7W01UMlMfJ5vMGg9ol-75" value="" style="endArrow=none;html=1;rounded=0;entryX=0.092;entryY=0.608;entryDx=0;entryDy=0;entryPerimeter=0;" edge="1" parent="1" target="IY7W01UMlMfJ5vMGg9ol-76">
          <mxGeometry width="50" height="50" relative="1" as="geometry">
            <mxPoint x="240" y="517.25" as="sourcePoint" />
            <mxPoint x="330" y="517" as="targetPoint" />
          </mxGeometry>
        </mxCell>
        <mxCell id="IY7W01UMlMfJ5vMGg9ol-76" value="" style="rhombus;whiteSpace=wrap;html=1;" vertex="1" parent="1">
          <mxGeometry x="310" y="450" width="120" height="120" as="geometry" />
        </mxCell>
        <mxCell id="IY7W01UMlMfJ5vMGg9ol-79" value="Treatment" style="rounded=0;whiteSpace=wrap;html=1;" vertex="1" parent="1">
          <mxGeometry x="570" y="450" width="180" height="100" as="geometry" />
        </mxCell>
        <mxCell id="IY7W01UMlMfJ5vMGg9ol-80" value="&amp;nbsp; Prescribed By" style="rhombus;whiteSpace=wrap;html=1;" vertex="1" parent="1">
          <mxGeometry x="320" y="460" width="100" height="100" as="geometry" />
        </mxCell>
        <mxCell id="IY7W01UMlMfJ5vMGg9ol-81" value="" style="endArrow=none;html=1;rounded=0;entryX=0.003;entryY=0.567;entryDx=0;entryDy=0;entryPerimeter=0;" edge="1" parent="1" target="JQ7dYN5Y3wBBPKodbZUG-50">
          <mxGeometry width="50" height="50" relative="1" as="geometry">
            <mxPoint x="430" y="510" as="sourcePoint" />
            <mxPoint x="503.5" y="510.88" as="targetPoint" />
          </mxGeometry>
        </mxCell>
        <mxCell id="IY7W01UMlMfJ5vMGg9ol-84" value="M" style="text;html=1;align=center;verticalAlign=middle;resizable=0;points=[];autosize=1;strokeColor=none;fillColor=none;" vertex="1" parent="1">
          <mxGeometry x="240" y="495" width="30" height="30" as="geometry" />
        </mxCell>
        <mxCell id="IY7W01UMlMfJ5vMGg9ol-85" value="N" style="text;html=1;align=center;verticalAlign=middle;resizable=0;points=[];autosize=1;strokeColor=none;fillColor=none;" vertex="1" parent="1">
          <mxGeometry x="520" y="485" width="30" height="30" as="geometry" />
        </mxCell>
        <mxCell id="IY7W01UMlMfJ5vMGg9ol-86" value="" style="endArrow=none;html=1;rounded=0;" edge="1" parent="1">
          <mxGeometry width="50" height="50" relative="1" as="geometry">
            <mxPoint x="400" y="545" as="sourcePoint" />
            <mxPoint x="460" y="570" as="targetPoint" />
          </mxGeometry>
        </mxCell>
        <mxCell id="IY7W01UMlMfJ5vMGg9ol-87" value="Treatment Dosage" style="ellipse;whiteSpace=wrap;html=1;" vertex="1" parent="1">
          <mxGeometry x="450" y="560" width="80" height="40" as="geometry" />
        </mxCell>
      </root>
    </mxGraphModel>
  </diagram>
</mxfile>
